<?xml version="1.0" encoding="utf-8"?>
<!-- Generator: Adobe Illustrator 16.0.0, SVG Export Plug-In . SVG Version: 6.00 Build 0)  -->
<!DOCTYPE svg PUBLIC "-//W3C//DTD SVG 1.1//EN" "http://www.w3.org/Graphics/SVG/1.1/DTD/svg11.dtd">
<svg version="1.1" id="Layer_1" xmlns="http://www.w3.org/2000/svg" xmlns:xlink="http://www.w3.org/1999/xlink" x="0px" y="0px"
	 width="35px" height="35px" viewBox="0 0 35 35" enable-background="new 0 0 35 35" xml:space="preserve">
<g>
	<g>
		<g>
			<path d="M20.918,3.828c0,1.888-1.53,3.418-3.418,3.418s-3.418-1.53-3.418-3.418S15.612,0.41,17.5,0.41S20.918,1.94,20.918,3.828"
				/>
		</g>
		<g>
			<g>
				<g opacity="0">
					<g>
						<defs>
							<rect id="SVGID_1_" x="23.75" y="4.415" width="6.836" height="6.836"/>
						</defs>
						<clipPath id="SVGID_2_">
							<use xlink:href="#SVGID_1_"  overflow="visible"/>
						</clipPath>
						<path clip-path="url(#SVGID_2_)" d="M30.586,7.833c0,1.888-1.531,3.418-3.418,3.418c-1.889,0-3.418-1.53-3.418-3.418
							s1.529-3.418,3.418-3.418C29.055,4.415,30.586,5.945,30.586,7.833"/>
					</g>
				</g>
				<g>
					<g>
						<g opacity="0.1">
							<g>
								<defs>
									<rect id="SVGID_3_" x="27.754" y="14.082" width="6.836" height="6.836"/>
								</defs>
								<clipPath id="SVGID_4_">
									<use xlink:href="#SVGID_3_"  overflow="visible"/>
								</clipPath>
								<path clip-path="url(#SVGID_4_)" d="M34.59,17.5c0,1.888-1.53,3.418-3.418,3.418s-3.418-1.53-3.418-3.418
									s1.53-3.418,3.418-3.418S34.59,15.612,34.59,17.5"/>
							</g>
						</g>
						<g>
							<g>
								<g opacity="0.25">
									<g>
										<defs>
											<rect id="SVGID_5_" x="23.75" y="23.717" width="6.836" height="6.836"/>
										</defs>
										<clipPath id="SVGID_6_">
											<use xlink:href="#SVGID_5_"  overflow="visible"/>
										</clipPath>
										<path clip-path="url(#SVGID_6_)" d="M30.586,27.135c0,1.889-1.531,3.418-3.418,3.418c-1.889,0-3.418-1.529-3.418-3.418
											c0-1.887,1.529-3.418,3.418-3.418C29.055,23.717,30.586,25.248,30.586,27.135"/>
									</g>
								</g>
								<g>
									<g>
										<g opacity="0.4">
											<g>
												<defs>
													<rect id="SVGID_7_" x="14.082" y="27.754" width="6.836" height="6.836"/>
												</defs>
												<clipPath id="SVGID_8_">
													<use xlink:href="#SVGID_7_"  overflow="visible"/>
												</clipPath>
												<path clip-path="url(#SVGID_8_)" d="M20.918,31.172c0,1.888-1.53,3.418-3.418,3.418s-3.418-1.53-3.418-3.418
													s1.53-3.418,3.418-3.418S20.918,29.284,20.918,31.172"/>
											</g>
										</g>
										<g>
											<g>
												<g opacity="0.55">
													<g>
														<defs>
															<rect id="SVGID_9_" x="4.431" y="23.717" width="6.836" height="6.836"/>
														</defs>
														<clipPath id="SVGID_10_">
															<use xlink:href="#SVGID_9_"  overflow="visible"/>
														</clipPath>
														<path clip-path="url(#SVGID_10_)" d="M11.267,27.135c0,1.889-1.53,3.418-3.418,3.418s-3.418-1.529-3.418-3.418
															c0-1.887,1.53-3.418,3.418-3.418S11.267,25.248,11.267,27.135"/>
													</g>
												</g>
												<g>
													<g>
														<g opacity="0.7">
															<g>
																<defs>
																	<rect id="SVGID_11_" x="0.41" y="14.082" width="6.836" height="6.836"/>
																</defs>
																<clipPath id="SVGID_12_">
																	<use xlink:href="#SVGID_11_"  overflow="visible"/>
																</clipPath>
																<path clip-path="url(#SVGID_12_)" d="M7.246,17.5c0,1.888-1.53,3.418-3.418,3.418S0.41,19.388,0.41,17.5
																	s1.53-3.418,3.418-3.418S7.246,15.612,7.246,17.5"/>
															</g>
														</g>
														<g>
															<g>
																<g opacity="0.85">
																	<g>
																		<defs>
																			<rect id="SVGID_13_" x="4.431" y="4.415" width="6.836" height="6.836"/>
																		</defs>
																		<clipPath id="SVGID_14_">
																			<use xlink:href="#SVGID_13_"  overflow="visible"/>
																		</clipPath>
																		<path clip-path="url(#SVGID_14_)" d="M11.267,7.833c0,1.888-1.53,3.418-3.418,3.418S4.431,9.72,4.431,7.833
																			s1.53-3.418,3.418-3.418S11.267,5.945,11.267,7.833"/>
																	</g>
																</g>
															</g>
														</g>
													</g>
												</g>
											</g>
										</g>
									</g>
								</g>
							</g>
						</g>
					</g>
				</g>
			</g>
		</g>
	</g>
</g>
</svg>
