<?xml version="1.0" encoding="UTF-8" standalone="no"?>
<svg
   xmlns:dc="http://purl.org/dc/elements/1.1/"
   xmlns:cc="http://creativecommons.org/ns#"
   xmlns:rdf="http://www.w3.org/1999/02/22-rdf-syntax-ns#"
   xmlns:svg="http://www.w3.org/2000/svg"
   xmlns="http://www.w3.org/2000/svg"
   viewBox="0 0 793.70667 1122.52"
   height="1122.52"
   width="793.70667"
   xml:space="preserve"
   id="svg2"
   version="1.1"><metadata
     id="metadata8"><rdf:RDF><cc:Work
         rdf:about=""><dc:format>image/svg+xml</dc:format><dc:type
           rdf:resource="http://purl.org/dc/dcmitype/StillImage" /></cc:Work></rdf:RDF></metadata><defs
     id="defs6"><clipPath
       id="clipPath50"
       clipPathUnits="userSpaceOnUse"><path
         id="path48"
         d="M 0,841.89 H 595.28 V 0 H 0 Z" /></clipPath></defs><g
     transform="matrix(1.3333333,0,0,-1.3333333,0,1122.52)"
     id="g10"><g
       transform="translate(563.9292,519.89)"
       id="g12"><path
         id="path14"
         style="fill:none;stroke:#8cc63f;stroke-width:3.5;stroke-linecap:round;stroke-linejoin:round;stroke-miterlimit:4;stroke-dasharray:none;stroke-opacity:1"
         d="M 0,0 V -3 H -3" /></g><g
       transform="translate(554.9424,516.89)"
       id="g16"><path
         id="path18"
         style="fill:none;stroke:#8cc63f;stroke-width:3.5;stroke-linecap:round;stroke-linejoin:round;stroke-miterlimit:4;stroke-dasharray:5.987, 5.987;stroke-dashoffset:0;stroke-opacity:1"
         d="M 0,0 H -475.949" /></g><g
       transform="translate(76,516.89)"
       id="g20"><path
         id="path22"
         style="fill:none;stroke:#8cc63f;stroke-width:3.5;stroke-linecap:round;stroke-linejoin:round;stroke-miterlimit:4;stroke-dasharray:none;stroke-opacity:1"
         d="M 0,0 H -3 V 3" /></g><g
       transform="translate(73,525.7812)"
       id="g24"><path
         id="path26"
         style="fill:none;stroke:#8cc63f;stroke-width:3.5;stroke-linecap:round;stroke-linejoin:round;stroke-miterlimit:4;stroke-dasharray:5.891, 5.891;stroke-dashoffset:0;stroke-opacity:1"
         d="M 0,0 V 268.053" /></g><g
       transform="translate(73,796.7795)"
       id="g28"><path
         id="path30"
         style="fill:none;stroke:#8cc63f;stroke-width:3.5;stroke-linecap:round;stroke-linejoin:round;stroke-miterlimit:4;stroke-dasharray:none;stroke-opacity:1"
         d="M 0,0 V 3 H 3" /></g><g
       transform="translate(81.9868,799.7795)"
       id="g32"><path
         id="path34"
         style="fill:none;stroke:#8cc63f;stroke-width:3.5;stroke-linecap:round;stroke-linejoin:round;stroke-miterlimit:4;stroke-dasharray:5.987, 5.987;stroke-dashoffset:0;stroke-opacity:1"
         d="M 0,0 H 475.949" /></g><g
       transform="translate(560.9292,799.7795)"
       id="g36"><path
         id="path38"
         style="fill:none;stroke:#8cc63f;stroke-width:3.5;stroke-linecap:round;stroke-linejoin:round;stroke-miterlimit:4;stroke-dasharray:none;stroke-opacity:1"
         d="M 0,0 H 3 V -3" /></g><g
       transform="translate(563.9292,790.8882)"
       id="g40"><path
         id="path42"
         style="fill:none;stroke:#8cc63f;stroke-width:3.5;stroke-linecap:round;stroke-linejoin:round;stroke-miterlimit:4;stroke-dasharray:5.891, 5.891;stroke-dashoffset:0;stroke-opacity:1"
         d="M 0,0 V -268.053" /></g><g
       id="g44"><g
         clip-path="url(#clipPath50)"
         id="g46"><g
           transform="translate(56.7349,761.1216)"
           id="g52"><path
             id="path54"
             style="fill:#8cc63f;fill-opacity:1;fill-rule:nonzero;stroke:none"
             d="m 0,0 c -1.057,0 -1.912,-0.857 -1.912,-1.912 0,-1.056 0.855,-1.912 1.912,-1.912 1.056,0 1.911,0.856 1.911,1.912 C 1.91,-0.857 1.055,0 0,0 m -19.345,-1.235 c -6.11,0 -11.082,-4.971 -11.082,-11.081 0,-6.111 4.972,-11.08 11.082,-11.08 6.109,0 11.079,4.97 11.079,11.08 0,6.11 -4.971,11.081 -11.079,11.081 m 0,-24.235 c -7.253,0 -13.155,5.9 -13.155,13.153 0,7.253 5.901,13.153 13.155,13.153 7.252,0 13.152,-5.901 13.152,-13.153 0,-7.252 -5.9,-13.153 -13.152,-13.153 M -40.031,3.847 c -2.286,0 -4.145,-1.859 -4.145,-4.146 v -25.218 c 0,-2.286 1.859,-4.145 4.145,-4.145 H 1.338 c 2.286,0 4.145,1.859 4.145,4.145 v 25.218 c 0,2.287 -1.859,4.146 -4.145,4.146 H -8.713 l -1.135,4.047 c -0.104,0.471 -0.528,0.811 -1.009,0.811 h -16.98 c -0.488,0 -0.903,-0.333 -1.01,-0.812 L -30.044,3.847 Z M 1.338,-31.735 h -41.369 c -3.429,0 -6.218,2.789 -6.218,6.218 v 25.218 c 0,3.43 2.789,6.219 6.218,6.219 h 8.441 l 0.739,2.492 c 0.302,1.364 1.549,2.365 3.015,2.365 h 16.98 c 1.425,0 2.686,-0.996 3.02,-2.377 l 0.02,-0.085 0.673,-2.395 h 8.482 c 3.429,0 6.218,-2.789 6.218,-6.218 v -25.218 c -0.001,-3.43 -2.791,-6.219 -6.219,-6.219" /></g><g
           transform="translate(56.7349,761.1216)"
           id="g56"><path
             id="path58"
             style="fill:none;stroke:#8cc63f;stroke-width:1;stroke-linecap:butt;stroke-linejoin:miter;stroke-miterlimit:10;stroke-dasharray:none;stroke-opacity:1"
             d="m 0,0 c -1.057,0 -1.912,-0.857 -1.912,-1.912 0,-1.056 0.855,-1.912 1.912,-1.912 1.056,0 1.911,0.856 1.911,1.912 C 1.91,-0.857 1.055,0 0,0 Z m -19.345,-1.235 c -6.11,0 -11.082,-4.971 -11.082,-11.081 0,-6.111 4.972,-11.08 11.082,-11.08 6.109,0 11.079,4.97 11.079,11.08 0,6.11 -4.971,11.081 -11.079,11.081 z m 0,-24.235 c -7.253,0 -13.155,5.9 -13.155,13.153 0,7.253 5.901,13.153 13.155,13.153 7.252,0 13.152,-5.901 13.152,-13.153 0,-7.252 -5.9,-13.153 -13.152,-13.153 z M -40.031,3.847 c -2.286,0 -4.145,-1.859 -4.145,-4.146 v -25.218 c 0,-2.286 1.859,-4.145 4.145,-4.145 H 1.338 c 2.286,0 4.145,1.859 4.145,4.145 v 25.218 c 0,2.287 -1.859,4.146 -4.145,4.146 H -8.713 l -1.135,4.047 c -0.104,0.471 -0.528,0.811 -1.009,0.811 h -16.98 c -0.488,0 -0.903,-0.333 -1.01,-0.812 L -30.044,3.847 Z M 1.338,-31.735 h -41.369 c -3.429,0 -6.218,2.789 -6.218,6.218 v 25.218 c 0,3.43 2.789,6.219 6.218,6.219 h 8.441 l 0.739,2.492 c 0.302,1.364 1.549,2.365 3.015,2.365 h 16.98 c 1.425,0 2.686,-0.996 3.02,-2.377 l 0.02,-0.085 0.673,-2.395 h 8.482 c 3.429,0 6.218,-2.789 6.218,-6.218 v -25.218 c -0.001,-3.43 -2.791,-6.219 -6.219,-6.219 z" /></g><path
           id="path60"
           style="fill:#cccccc;fill-opacity:1;fill-rule:nonzero;stroke:#cccccc;stroke-width:8;stroke-linecap:butt;stroke-linejoin:miter;stroke-miterlimit:10;stroke-dasharray:none;stroke-opacity:1"
           d="M 553.792,774.89 H 86.998 v 12 h 466.794 z" /><path
           id="path62"
           style="fill:none;stroke:#cccccc;stroke-width:2;stroke-linecap:butt;stroke-linejoin:miter;stroke-miterlimit:10;stroke-dasharray:none;stroke-opacity:1"
           d="M 556.66,668.89 H 83.588 V 773.988 H 556.66 Z" /><g
           transform="translate(205.5,727.89)"
           id="g64"><path
             id="path66"
             style="fill:none;stroke:#cccccc;stroke-width:1;stroke-linecap:butt;stroke-linejoin:miter;stroke-miterlimit:10;stroke-dasharray:none;stroke-opacity:1"
             d="M 0,0 V -49" /></g><g
           transform="translate(380,721.89)"
           id="g68"><path
             id="path70"
             style="fill:#b3b3b3;fill-opacity:1;fill-rule:nonzero;stroke:#b3b3b3;stroke-width:4;stroke-linecap:butt;stroke-linejoin:miter;stroke-miterlimit:10;stroke-dasharray:none;stroke-opacity:1"
             d="M 0,0 H -42" /></g><g
           transform="translate(380,692.89)"
           id="g72"><path
             id="path74"
             style="fill:#b3b3b3;fill-opacity:1;fill-rule:nonzero;stroke:#b3b3b3;stroke-width:4;stroke-linecap:butt;stroke-linejoin:miter;stroke-miterlimit:10;stroke-dasharray:none;stroke-opacity:1"
             d="M 0,0 H -28" /></g><g
           transform="translate(155,721.89)"
           id="g76"><path
             id="path78"
             style="fill:#b3b3b3;fill-opacity:1;fill-rule:nonzero;stroke:#b3b3b3;stroke-width:4;stroke-linecap:butt;stroke-linejoin:miter;stroke-miterlimit:10;stroke-dasharray:none;stroke-opacity:1"
             d="M 0,0 H -63" /></g><g
           transform="translate(92,780.89)"
           id="g80"><path
             id="path82"
             style="fill:#b3b3b3;fill-opacity:1;fill-rule:nonzero;stroke:#b3b3b3;stroke-width:10;stroke-linecap:butt;stroke-linejoin:miter;stroke-miterlimit:10;stroke-dasharray:none;stroke-opacity:1"
             d="M 0,0 H 146" /></g><path
           id="path84"
           style="fill:#cccccc;fill-opacity:1;fill-rule:nonzero;stroke:#cccccc;stroke-width:8;stroke-linecap:butt;stroke-linejoin:miter;stroke-miterlimit:10;stroke-dasharray:none;stroke-opacity:1"
           d="M 551.862,186.517 H 85.068 v 12.373 h 466.794 z" /><path
           id="path86"
           style="fill:none;stroke:#cccccc;stroke-width:2;stroke-linecap:butt;stroke-linejoin:miter;stroke-miterlimit:10;stroke-dasharray:none;stroke-opacity:1"
           d="M 554.729,77.223 H 81.657 v 108.363 h 473.072 z" /><g
           transform="translate(163,157.39)"
           id="g88"><path
             id="path90"
             style="fill:#b3b3b3;fill-opacity:1;fill-rule:nonzero;stroke:#b3b3b3;stroke-width:7;stroke-linecap:butt;stroke-linejoin:miter;stroke-miterlimit:10;stroke-dasharray:none;stroke-opacity:1"
             d="M 0,0 H -73" /></g><g
           transform="translate(153,145.39)"
           id="g92"><path
             id="path94"
             style="fill:#b3b3b3;fill-opacity:1;fill-rule:nonzero;stroke:#b3b3b3;stroke-width:7;stroke-linecap:butt;stroke-linejoin:miter;stroke-miterlimit:10;stroke-dasharray:none;stroke-opacity:1"
             d="M 0,0 H -63" /></g><g
           transform="translate(153,121.39)"
           id="g96"><path
             id="path98"
             style="fill:#b3b3b3;fill-opacity:1;fill-rule:nonzero;stroke:#b3b3b3;stroke-width:7;stroke-linecap:butt;stroke-linejoin:miter;stroke-miterlimit:10;stroke-dasharray:none;stroke-opacity:1"
             d="M 0,0 H -63" /></g><g
           transform="translate(153,133.39)"
           id="g100"><path
             id="path102"
             style="fill:#b3b3b3;fill-opacity:1;fill-rule:nonzero;stroke:#b3b3b3;stroke-width:7;stroke-linecap:butt;stroke-linejoin:miter;stroke-miterlimit:10;stroke-dasharray:none;stroke-opacity:1"
             d="M 0,0 H -63" /></g><g
           transform="translate(153,109.39)"
           id="g104"><path
             id="path106"
             style="fill:#b3b3b3;fill-opacity:1;fill-rule:nonzero;stroke:#b3b3b3;stroke-width:7;stroke-linecap:butt;stroke-linejoin:miter;stroke-miterlimit:10;stroke-dasharray:none;stroke-opacity:1"
             d="M 0,0 H -63" /></g><g
           transform="translate(153,85.39)"
           id="g108"><path
             id="path110"
             style="fill:#b3b3b3;fill-opacity:1;fill-rule:nonzero;stroke:#b3b3b3;stroke-width:7;stroke-linecap:butt;stroke-linejoin:miter;stroke-miterlimit:10;stroke-dasharray:none;stroke-opacity:1"
             d="M 0,0 H -63" /></g><g
           transform="translate(153,97.39)"
           id="g112"><path
             id="path114"
             style="fill:#b3b3b3;fill-opacity:1;fill-rule:nonzero;stroke:#b3b3b3;stroke-width:7;stroke-linecap:butt;stroke-linejoin:miter;stroke-miterlimit:10;stroke-dasharray:none;stroke-opacity:1"
             d="M 0,0 H -63" /></g><g
           transform="translate(90,192.89)"
           id="g116"><path
             id="path118"
             style="fill:#b3b3b3;fill-opacity:1;fill-rule:nonzero;stroke:#b3b3b3;stroke-width:10;stroke-linecap:butt;stroke-linejoin:miter;stroke-miterlimit:10;stroke-dasharray:none;stroke-opacity:1"
             d="M 0,0 H 146" /></g><g
           transform="translate(93,757.89)"
           id="g120"><path
             id="path122"
             style="fill:#b3b3b3;fill-opacity:1;fill-rule:nonzero;stroke:#b3b3b3;stroke-width:8;stroke-linecap:butt;stroke-linejoin:miter;stroke-miterlimit:10;stroke-dasharray:none;stroke-opacity:1"
             d="M 0,0 H 320" /></g><g
           transform="translate(93,744.89)"
           id="g124"><path
             id="path126"
             style="fill:#b3b3b3;fill-opacity:1;fill-rule:nonzero;stroke:#b3b3b3;stroke-width:8;stroke-linecap:butt;stroke-linejoin:miter;stroke-miterlimit:10;stroke-dasharray:none;stroke-opacity:1"
             d="M 0,0 H 123" /></g><g
           transform="translate(93,738.39)"
           id="g128"><path
             id="path130"
             style="fill:#b3b3b3;fill-opacity:1;fill-rule:nonzero;stroke:#b3b3b3;stroke-width:1;stroke-linecap:butt;stroke-linejoin:miter;stroke-miterlimit:10;stroke-dasharray:none;stroke-opacity:1"
             d="M 0,0 H 457" /></g><g
           transform="translate(320.5,728.89)"
           id="g132"><path
             id="path134"
             style="fill:none;stroke:#cccccc;stroke-width:1;stroke-linecap:butt;stroke-linejoin:miter;stroke-miterlimit:10;stroke-dasharray:none;stroke-opacity:1"
             d="M 0,0 V -49" /></g><g
           transform="translate(250,721.89)"
           id="g136"><path
             id="path138"
             style="fill:#b3b3b3;fill-opacity:1;fill-rule:nonzero;stroke:#b3b3b3;stroke-width:4;stroke-linecap:butt;stroke-linejoin:miter;stroke-miterlimit:10;stroke-dasharray:none;stroke-opacity:1"
             d="M 0,0 H -36" /></g><g
           transform="translate(310,721.89)"
           id="g140"><path
             id="path142"
             style="fill:#b3b3b3;fill-opacity:1;fill-rule:nonzero;stroke:#b3b3b3;stroke-width:4;stroke-linecap:butt;stroke-linejoin:miter;stroke-miterlimit:10;stroke-dasharray:none;stroke-opacity:1"
             d="M 0,0 H -35" /></g><g
           transform="translate(250,701.89)"
           id="g144"><path
             id="path146"
             style="fill:#b3b3b3;fill-opacity:1;fill-rule:nonzero;stroke:#b3b3b3;stroke-width:4;stroke-linecap:butt;stroke-linejoin:miter;stroke-miterlimit:10;stroke-dasharray:none;stroke-opacity:1"
             d="M 0,0 H -36" /></g><g
           transform="translate(310,701.89)"
           id="g148"><path
             id="path150"
             style="fill:#b3b3b3;fill-opacity:1;fill-rule:nonzero;stroke:#b3b3b3;stroke-width:4;stroke-linecap:butt;stroke-linejoin:miter;stroke-miterlimit:10;stroke-dasharray:none;stroke-opacity:1"
             d="M 0,0 H -35" /></g><g
           transform="translate(250,691.89)"
           id="g152"><path
             id="path154"
             style="fill:#b3b3b3;fill-opacity:1;fill-rule:nonzero;stroke:#b3b3b3;stroke-width:4;stroke-linecap:butt;stroke-linejoin:miter;stroke-miterlimit:10;stroke-dasharray:none;stroke-opacity:1"
             d="M 0,0 H -36" /></g><g
           transform="translate(310,691.89)"
           id="g156"><path
             id="path158"
             style="fill:#b3b3b3;fill-opacity:1;fill-rule:nonzero;stroke:#b3b3b3;stroke-width:4;stroke-linecap:butt;stroke-linejoin:miter;stroke-miterlimit:10;stroke-dasharray:none;stroke-opacity:1"
             d="M 0,0 H -35" /></g><path
           id="path160"
           style="fill:#b3b3b3;fill-opacity:1;fill-rule:nonzero;stroke:#b3b3b3;stroke-width:4;stroke-linecap:butt;stroke-linejoin:miter;stroke-miterlimit:10;stroke-dasharray:none;stroke-opacity:1"
           d="m 171.925,687.39 h -56.962 v 16 h 56.962 z" /><path
           id="path162"
           style="fill:#cccccc;fill-opacity:1;fill-rule:nonzero;stroke:#cccccc;stroke-width:8;stroke-linecap:butt;stroke-linejoin:miter;stroke-miterlimit:10;stroke-dasharray:none;stroke-opacity:1"
           d="M 553.792,632.89 H 86.998 v 12 h 466.794 z" /><path
           id="path164"
           style="fill:none;stroke:#cccccc;stroke-width:2;stroke-linecap:butt;stroke-linejoin:miter;stroke-miterlimit:10;stroke-dasharray:none;stroke-opacity:1"
           d="M 556.66,526.89 H 83.588 V 631.988 H 556.66 Z" /><g
           transform="translate(205.5,585.89)"
           id="g166"><path
             id="path168"
             style="fill:none;stroke:#cccccc;stroke-width:1;stroke-linecap:butt;stroke-linejoin:miter;stroke-miterlimit:10;stroke-dasharray:none;stroke-opacity:1"
             d="M 0,0 V -49" /></g><g
           transform="translate(380,579.89)"
           id="g170"><path
             id="path172"
             style="fill:#b3b3b3;fill-opacity:1;fill-rule:nonzero;stroke:#b3b3b3;stroke-width:4;stroke-linecap:butt;stroke-linejoin:miter;stroke-miterlimit:10;stroke-dasharray:none;stroke-opacity:1"
             d="M 0,0 H -42" /></g><g
           transform="translate(380,550.89)"
           id="g174"><path
             id="path176"
             style="fill:#b3b3b3;fill-opacity:1;fill-rule:nonzero;stroke:#b3b3b3;stroke-width:4;stroke-linecap:butt;stroke-linejoin:miter;stroke-miterlimit:10;stroke-dasharray:none;stroke-opacity:1"
             d="M 0,0 H -28" /></g><g
           transform="translate(155,579.89)"
           id="g178"><path
             id="path180"
             style="fill:#b3b3b3;fill-opacity:1;fill-rule:nonzero;stroke:#b3b3b3;stroke-width:4;stroke-linecap:butt;stroke-linejoin:miter;stroke-miterlimit:10;stroke-dasharray:none;stroke-opacity:1"
             d="M 0,0 H -63" /></g><g
           transform="translate(92,638.89)"
           id="g182"><path
             id="path184"
             style="fill:#b3b3b3;fill-opacity:1;fill-rule:nonzero;stroke:#b3b3b3;stroke-width:10;stroke-linecap:butt;stroke-linejoin:miter;stroke-miterlimit:10;stroke-dasharray:none;stroke-opacity:1"
             d="M 0,0 H 146" /></g><g
           transform="translate(93,615.89)"
           id="g186"><path
             id="path188"
             style="fill:#b3b3b3;fill-opacity:1;fill-rule:nonzero;stroke:#b3b3b3;stroke-width:8;stroke-linecap:butt;stroke-linejoin:miter;stroke-miterlimit:10;stroke-dasharray:none;stroke-opacity:1"
             d="M 0,0 H 320" /></g><g
           transform="translate(93,602.89)"
           id="g190"><path
             id="path192"
             style="fill:#b3b3b3;fill-opacity:1;fill-rule:nonzero;stroke:#b3b3b3;stroke-width:8;stroke-linecap:butt;stroke-linejoin:miter;stroke-miterlimit:10;stroke-dasharray:none;stroke-opacity:1"
             d="M 0,0 H 123" /></g><g
           transform="translate(93,596.39)"
           id="g194"><path
             id="path196"
             style="fill:#b3b3b3;fill-opacity:1;fill-rule:nonzero;stroke:#b3b3b3;stroke-width:1;stroke-linecap:butt;stroke-linejoin:miter;stroke-miterlimit:10;stroke-dasharray:none;stroke-opacity:1"
             d="M 0,0 H 457" /></g><g
           transform="translate(320.5,586.89)"
           id="g198"><path
             id="path200"
             style="fill:none;stroke:#cccccc;stroke-width:1;stroke-linecap:butt;stroke-linejoin:miter;stroke-miterlimit:10;stroke-dasharray:none;stroke-opacity:1"
             d="M 0,0 V -49" /></g><g
           transform="translate(250,579.89)"
           id="g202"><path
             id="path204"
             style="fill:#b3b3b3;fill-opacity:1;fill-rule:nonzero;stroke:#b3b3b3;stroke-width:4;stroke-linecap:butt;stroke-linejoin:miter;stroke-miterlimit:10;stroke-dasharray:none;stroke-opacity:1"
             d="M 0,0 H -36" /></g><g
           transform="translate(310,579.89)"
           id="g206"><path
             id="path208"
             style="fill:#b3b3b3;fill-opacity:1;fill-rule:nonzero;stroke:#b3b3b3;stroke-width:4;stroke-linecap:butt;stroke-linejoin:miter;stroke-miterlimit:10;stroke-dasharray:none;stroke-opacity:1"
             d="M 0,0 H -35" /></g><g
           transform="translate(250,559.89)"
           id="g210"><path
             id="path212"
             style="fill:#b3b3b3;fill-opacity:1;fill-rule:nonzero;stroke:#b3b3b3;stroke-width:4;stroke-linecap:butt;stroke-linejoin:miter;stroke-miterlimit:10;stroke-dasharray:none;stroke-opacity:1"
             d="M 0,0 H -36" /></g><g
           transform="translate(310,559.89)"
           id="g214"><path
             id="path216"
             style="fill:#b3b3b3;fill-opacity:1;fill-rule:nonzero;stroke:#b3b3b3;stroke-width:4;stroke-linecap:butt;stroke-linejoin:miter;stroke-miterlimit:10;stroke-dasharray:none;stroke-opacity:1"
             d="M 0,0 H -35" /></g><g
           transform="translate(250,549.89)"
           id="g218"><path
             id="path220"
             style="fill:#b3b3b3;fill-opacity:1;fill-rule:nonzero;stroke:#b3b3b3;stroke-width:4;stroke-linecap:butt;stroke-linejoin:miter;stroke-miterlimit:10;stroke-dasharray:none;stroke-opacity:1"
             d="M 0,0 H -36" /></g><g
           transform="translate(310,549.89)"
           id="g222"><path
             id="path224"
             style="fill:#b3b3b3;fill-opacity:1;fill-rule:nonzero;stroke:#b3b3b3;stroke-width:4;stroke-linecap:butt;stroke-linejoin:miter;stroke-miterlimit:10;stroke-dasharray:none;stroke-opacity:1"
             d="M 0,0 H -35" /></g><path
           id="path226"
           style="fill:#b3b3b3;fill-opacity:1;fill-rule:nonzero;stroke:#b3b3b3;stroke-width:4;stroke-linecap:butt;stroke-linejoin:miter;stroke-miterlimit:10;stroke-dasharray:none;stroke-opacity:1"
           d="m 171.925,545.39 h -56.962 v 16 h 56.962 z" /><g
           transform="translate(398.5,587.89)"
           id="g228"><path
             id="path230"
             style="fill:none;stroke:#cccccc;stroke-width:1;stroke-linecap:butt;stroke-linejoin:miter;stroke-miterlimit:10;stroke-dasharray:none;stroke-opacity:1"
             d="M 0,0 V -49" /></g><g
           transform="translate(473.5,588.89)"
           id="g232"><path
             id="path234"
             style="fill:none;stroke:#cccccc;stroke-width:1;stroke-linecap:butt;stroke-linejoin:miter;stroke-miterlimit:10;stroke-dasharray:none;stroke-opacity:1"
             d="M 0,0 V -49" /></g><g
           transform="translate(458,579.89)"
           id="g236"><path
             id="path238"
             style="fill:#b3b3b3;fill-opacity:1;fill-rule:nonzero;stroke:#b3b3b3;stroke-width:4;stroke-linecap:butt;stroke-linejoin:miter;stroke-miterlimit:10;stroke-dasharray:none;stroke-opacity:1"
             d="M 0,0 H -41" /></g><g
           transform="translate(458,550.89)"
           id="g240"><path
             id="path242"
             style="fill:#b3b3b3;fill-opacity:1;fill-rule:nonzero;stroke:#b3b3b3;stroke-width:4;stroke-linecap:butt;stroke-linejoin:miter;stroke-miterlimit:10;stroke-dasharray:none;stroke-opacity:1"
             d="M 0,0 H -28" /></g><g
           transform="translate(535,579.89)"
           id="g244"><path
             id="path246"
             style="fill:#b3b3b3;fill-opacity:1;fill-rule:nonzero;stroke:#b3b3b3;stroke-width:4;stroke-linecap:butt;stroke-linejoin:miter;stroke-miterlimit:10;stroke-dasharray:none;stroke-opacity:1"
             d="M 0,0 H -41" /></g><g
           transform="translate(535,550.89)"
           id="g248"><path
             id="path250"
             style="fill:#b3b3b3;fill-opacity:1;fill-rule:nonzero;stroke:#b3b3b3;stroke-width:4;stroke-linecap:butt;stroke-linejoin:miter;stroke-miterlimit:10;stroke-dasharray:none;stroke-opacity:1"
             d="M 0,0 H -28" /></g><path
           id="path252"
           style="fill:#cccccc;fill-opacity:1;fill-rule:nonzero;stroke:#cccccc;stroke-width:8;stroke-linecap:butt;stroke-linejoin:miter;stroke-miterlimit:10;stroke-dasharray:none;stroke-opacity:1"
           d="M 552.827,491.544 H 86.033 v 11.346 h 466.794 z" /><path
           id="path254"
           style="fill:none;stroke:#cccccc;stroke-width:2;stroke-linecap:butt;stroke-linejoin:miter;stroke-miterlimit:10;stroke-dasharray:none;stroke-opacity:1"
           d="M 555.694,224.89 H 82.622 v 264.416 h 473.072 z" /><g
           transform="translate(91,496.89)"
           id="g256"><path
             id="path258"
             style="fill:#b3b3b3;fill-opacity:1;fill-rule:nonzero;stroke:#b3b3b3;stroke-width:10;stroke-linecap:butt;stroke-linejoin:miter;stroke-miterlimit:10;stroke-dasharray:none;stroke-opacity:1"
             d="M 0,0 H 197" /></g><g
           transform="translate(91,475.89)"
           id="g260"><path
             id="path262"
             style="fill:#b3b3b3;fill-opacity:1;fill-rule:nonzero;stroke:#b3b3b3;stroke-width:8;stroke-linecap:butt;stroke-linejoin:miter;stroke-miterlimit:10;stroke-dasharray:none;stroke-opacity:1"
             d="M 0,0 H 147" /></g><g
           transform="translate(335,475.89)"
           id="g264"><path
             id="path266"
             style="fill:#b3b3b3;fill-opacity:1;fill-rule:nonzero;stroke:#b3b3b3;stroke-width:8;stroke-linecap:butt;stroke-linejoin:miter;stroke-miterlimit:10;stroke-dasharray:none;stroke-opacity:1"
             d="M 0,0 H 146" /></g><g
           transform="translate(163,462.89)"
           id="g268"><path
             id="path270"
             style="fill:#b3b3b3;fill-opacity:1;fill-rule:nonzero;stroke:#b3b3b3;stroke-width:4;stroke-linecap:butt;stroke-linejoin:miter;stroke-miterlimit:10;stroke-dasharray:none;stroke-opacity:1"
             d="M 0,0 H -71" /></g><g
           transform="translate(163,452.89)"
           id="g272"><path
             id="path274"
             style="fill:#b3b3b3;fill-opacity:1;fill-rule:nonzero;stroke:#b3b3b3;stroke-width:4;stroke-linecap:butt;stroke-linejoin:miter;stroke-miterlimit:10;stroke-dasharray:none;stroke-opacity:1"
             d="M 0,0 H -71" /></g><g
           transform="translate(405,462.89)"
           id="g276"><path
             id="path278"
             style="fill:#b3b3b3;fill-opacity:1;fill-rule:nonzero;stroke:#b3b3b3;stroke-width:4;stroke-linecap:butt;stroke-linejoin:miter;stroke-miterlimit:10;stroke-dasharray:none;stroke-opacity:1"
             d="M 0,0 H -70" /></g><g
           transform="translate(405,452.89)"
           id="g280"><path
             id="path282"
             style="fill:#b3b3b3;fill-opacity:1;fill-rule:nonzero;stroke:#b3b3b3;stroke-width:4;stroke-linecap:butt;stroke-linejoin:miter;stroke-miterlimit:10;stroke-dasharray:none;stroke-opacity:1"
             d="M 0,0 H -70" /></g><path
           id="path284"
           style="fill:#b3b3b3;fill-opacity:1;fill-rule:nonzero;stroke:#b3b3b3;stroke-width:1;stroke-linecap:butt;stroke-linejoin:miter;stroke-miterlimit:10;stroke-dasharray:none;stroke-opacity:1"
           d="m 119.315,283.356 h 15.536 V 414.89 h -15.536 z m -3.214,134.661 h 21.964 V 274.661 h -21.964 z m 0,-176.856 h 21.964 v 33.6 h -21.964 z m 45.003,66.418 H 176.64 V 414.89 h -15.536 z m -3.215,110.438 h 21.964 V 300.74 h -21.964 z m 0,-176.856 h 21.964 v 57.823 h -21.964 z m 45.003,101.58 h 15.536 v 72.929 h -15.536 z m -3.215,76.058 h 21.964 v -82.896 h -21.964 z m 0,-176.857 h 21.964 v 92.204 h -21.964 z m 42.859,120.801 h 15.536 v 52.93 h -15.536 z m -3.214,56.056 h 21.964 v -62.894 h -21.964 z m 0,-176.857 h 21.964 v 114.056 h -21.964 z m 43.395,100.799 h 15.536 v 72.929 h -15.536 z m -3.214,76.058 h 21.964 V 337.76 h -21.964 z m 0,-176.857 h 21.964 v 92.204 h -21.964 z" /><path
           id="path286"
           style="fill:none;stroke:#b3b3b3;stroke-width:2;stroke-linecap:butt;stroke-linejoin:miter;stroke-miterlimit:10;stroke-dasharray:none;stroke-opacity:1"
           d="m 104,432.89 h 258 v -96 H 104 Z" /><g
           transform="translate(232,336.89)"
           id="g288"><path
             id="path290"
             style="fill:none;stroke:#b3b3b3;stroke-width:2;stroke-linecap:butt;stroke-linejoin:miter;stroke-miterlimit:10;stroke-dasharray:none;stroke-opacity:1"
             d="M 0,0 H 130 V -96 H 0" /></g><g
           transform="translate(232,240.89)"
           id="g292"><path
             id="path294"
             style="fill:none;stroke:#b3b3b3;stroke-width:2;stroke-linecap:butt;stroke-linejoin:miter;stroke-miterlimit:10;stroke-dasharray:none;stroke-opacity:1"
             d="M 0,0 H -128 V 96 H 0" /></g><path
           id="path296"
           style="fill:#ffffff;fill-opacity:1;fill-rule:nonzero;stroke:none"
           d="m 389.635,233.89 h -157.23 v 212 h 157.23 z" /><g
           transform="translate(231.8746,433.89)"
           id="g298"><path
             id="path300"
             style="fill:none;stroke:#b3b3b3;stroke-width:2;stroke-linecap:butt;stroke-linejoin:miter;stroke-miterlimit:10;stroke-dasharray:none;stroke-opacity:1"
             d="M 0,0 -0.531,-193" /></g><path
           id="path302"
           style="fill:#b3b3b3;fill-opacity:1;fill-rule:nonzero;stroke:#b3b3b3;stroke-width:1;stroke-linecap:butt;stroke-linejoin:miter;stroke-miterlimit:10;stroke-dasharray:none;stroke-opacity:1"
           d="m 199.677,336.89 h 21.964 v -3.063 h -21.964 z" /><path
           id="path304"
           style="fill:#b3b3b3;fill-opacity:1;fill-rule:nonzero;stroke:#b3b3b3;stroke-width:1;stroke-linecap:butt;stroke-linejoin:miter;stroke-miterlimit:10;stroke-dasharray:none;stroke-opacity:1"
           d="m 157.889,300.89 h 21.964 v -3.063 h -21.964 z" /><path
           id="path306"
           style="fill:#b3b3b3;fill-opacity:1;fill-rule:nonzero;stroke:#b3b3b3;stroke-width:1;stroke-linecap:butt;stroke-linejoin:miter;stroke-miterlimit:10;stroke-dasharray:none;stroke-opacity:1"
           d="m 360.68,282.356 h 15.536 V 413.89 H 360.68 Z m -3.214,134.661 H 379.43 V 273.661 h -21.964 z m 0,-176.856 h 21.964 v 33.6 h -21.964 z m 45.002,66.418 h 15.536 V 413.89 h -15.536 z m -3.214,110.438 h 21.964 V 299.74 h -21.964 z m 0,-176.856 h 21.964 v 57.823 h -21.964 z m 45.003,101.58 h 15.536 v 72.929 h -15.536 z m -3.215,76.058 h 21.964 v -82.896 h -21.964 z m 0,-176.857 h 21.964 v 92.204 h -21.964 z m 42.859,120.801 h 15.536 v 52.93 h -15.536 z m -3.215,56.056 h 21.964 v -62.894 h -21.964 z m 0,-176.857 h 21.964 v 114.056 h -21.964 z m 43.396,100.799 h 15.536 v 72.929 h -15.536 z m -3.214,76.058 h 21.964 V 336.76 h -21.964 z m 0,-176.857 h 21.964 v 92.204 h -21.964 z" /><path
           id="path308"
           style="fill:none;stroke:#b3b3b3;stroke-width:2;stroke-linecap:butt;stroke-linejoin:miter;stroke-miterlimit:10;stroke-dasharray:none;stroke-opacity:1"
           d="m 345,431.89 h 258 v -96 H 345 Z" /><g
           transform="translate(474,335.89)"
           id="g310"><path
             id="path312"
             style="fill:none;stroke:#b3b3b3;stroke-width:2;stroke-linecap:butt;stroke-linejoin:miter;stroke-miterlimit:10;stroke-dasharray:none;stroke-opacity:1"
             d="M 0,0 H 129 V -96 H 0" /></g><g
           transform="translate(474,239.89)"
           id="g314"><path
             id="path316"
             style="fill:none;stroke:#b3b3b3;stroke-width:2;stroke-linecap:butt;stroke-linejoin:miter;stroke-miterlimit:10;stroke-dasharray:none;stroke-opacity:1"
             d="M 0,0 H -129 V 96 H 0" /></g><path
           id="path318"
           style="fill:#ffffff;fill-opacity:1;fill-rule:nonzero;stroke:none"
           d="M 631,232.89 H 473.77 v 212 H 631 Z" /><g
           transform="translate(473.2391,432.89)"
           id="g320"><path
             id="path322"
             style="fill:none;stroke:#b3b3b3;stroke-width:2;stroke-linecap:butt;stroke-linejoin:miter;stroke-miterlimit:10;stroke-dasharray:none;stroke-opacity:1"
             d="M 0,0 -0.531,-193" /></g><path
           id="path324"
           style="fill:#b3b3b3;fill-opacity:1;fill-rule:nonzero;stroke:#b3b3b3;stroke-width:1;stroke-linecap:butt;stroke-linejoin:miter;stroke-miterlimit:10;stroke-dasharray:none;stroke-opacity:1"
           d="m 441.042,335.89 h 21.964 v -3.063 h -21.964 z" /><path
           id="path326"
           style="fill:#b3b3b3;fill-opacity:1;fill-rule:nonzero;stroke:#b3b3b3;stroke-width:1;stroke-linecap:butt;stroke-linejoin:miter;stroke-miterlimit:10;stroke-dasharray:none;stroke-opacity:1"
           d="m 399.254,299.89 h 21.964 v -3.063 h -21.964 z" /><g
           transform="translate(556,444.89)"
           id="g328"><path
             id="path330"
             style="fill:none;stroke:#cccccc;stroke-width:2;stroke-linecap:butt;stroke-linejoin:miter;stroke-miterlimit:10;stroke-dasharray:none;stroke-opacity:1"
             d="M 0,0 V -213" /></g><g
           transform="translate(90,170.89)"
           id="g332"><path
             id="path334"
             style="fill:#b3b3b3;fill-opacity:1;fill-rule:nonzero;stroke:#b3b3b3;stroke-width:8;stroke-linecap:butt;stroke-linejoin:miter;stroke-miterlimit:10;stroke-dasharray:none;stroke-opacity:1"
             d="M 0,0 H 390" /></g><g
           transform="translate(266,157.39)"
           id="g336"><path
             id="path338"
             style="fill:#b3b3b3;fill-opacity:1;fill-rule:nonzero;stroke:#b3b3b3;stroke-width:7;stroke-linecap:butt;stroke-linejoin:miter;stroke-miterlimit:10;stroke-dasharray:none;stroke-opacity:1"
             d="M 0,0 H -74" /></g><g
           transform="translate(254,145.39)"
           id="g340"><path
             id="path342"
             style="fill:#b3b3b3;fill-opacity:1;fill-rule:nonzero;stroke:#b3b3b3;stroke-width:7;stroke-linecap:butt;stroke-linejoin:miter;stroke-miterlimit:10;stroke-dasharray:none;stroke-opacity:1"
             d="M 0,0 H -62" /></g><g
           transform="translate(254,121.39)"
           id="g344"><path
             id="path346"
             style="fill:#b3b3b3;fill-opacity:1;fill-rule:nonzero;stroke:#b3b3b3;stroke-width:7;stroke-linecap:butt;stroke-linejoin:miter;stroke-miterlimit:10;stroke-dasharray:none;stroke-opacity:1"
             d="M 0,0 H -62" /></g><g
           transform="translate(254,133.39)"
           id="g348"><path
             id="path350"
             style="fill:#b3b3b3;fill-opacity:1;fill-rule:nonzero;stroke:#b3b3b3;stroke-width:7;stroke-linecap:butt;stroke-linejoin:miter;stroke-miterlimit:10;stroke-dasharray:none;stroke-opacity:1"
             d="M 0,0 H -62" /></g><g
           transform="translate(254,109.39)"
           id="g352"><path
             id="path354"
             style="fill:#b3b3b3;fill-opacity:1;fill-rule:nonzero;stroke:#b3b3b3;stroke-width:7;stroke-linecap:butt;stroke-linejoin:miter;stroke-miterlimit:10;stroke-dasharray:none;stroke-opacity:1"
             d="M 0,0 H -62" /></g><g
           transform="translate(254,85.39)"
           id="g356"><path
             id="path358"
             style="fill:#b3b3b3;fill-opacity:1;fill-rule:nonzero;stroke:#b3b3b3;stroke-width:7;stroke-linecap:butt;stroke-linejoin:miter;stroke-miterlimit:10;stroke-dasharray:none;stroke-opacity:1"
             d="M 0,0 H -62" /></g><g
           transform="translate(254,97.39)"
           id="g360"><path
             id="path362"
             style="fill:#b3b3b3;fill-opacity:1;fill-rule:nonzero;stroke:#b3b3b3;stroke-width:7;stroke-linecap:butt;stroke-linejoin:miter;stroke-miterlimit:10;stroke-dasharray:none;stroke-opacity:1"
             d="M 0,0 H -62" /></g><g
           transform="translate(358,157.39)"
           id="g364"><path
             id="path366"
             style="fill:#b3b3b3;fill-opacity:1;fill-rule:nonzero;stroke:#b3b3b3;stroke-width:7;stroke-linecap:butt;stroke-linejoin:miter;stroke-miterlimit:10;stroke-dasharray:none;stroke-opacity:1"
             d="M 0,0 H -63" /></g><g
           transform="translate(342,145.3899)"
           id="g368"><path
             id="path370"
             style="fill:#b3b3b3;fill-opacity:1;fill-rule:nonzero;stroke:#b3b3b3;stroke-width:7;stroke-linecap:butt;stroke-linejoin:miter;stroke-miterlimit:10;stroke-dasharray:none;stroke-opacity:1"
             d="M 0,0 H -32" /></g><g
           transform="translate(342,121.3899)"
           id="g372"><path
             id="path374"
             style="fill:#b3b3b3;fill-opacity:1;fill-rule:nonzero;stroke:#b3b3b3;stroke-width:7;stroke-linecap:butt;stroke-linejoin:miter;stroke-miterlimit:10;stroke-dasharray:none;stroke-opacity:1"
             d="M 0,0 H -32" /></g><g
           transform="translate(342,133.3899)"
           id="g376"><path
             id="path378"
             style="fill:#b3b3b3;fill-opacity:1;fill-rule:nonzero;stroke:#b3b3b3;stroke-width:7;stroke-linecap:butt;stroke-linejoin:miter;stroke-miterlimit:10;stroke-dasharray:none;stroke-opacity:1"
             d="M 0,0 H -32" /></g><g
           transform="translate(342,109.3899)"
           id="g380"><path
             id="path382"
             style="fill:#b3b3b3;fill-opacity:1;fill-rule:nonzero;stroke:#b3b3b3;stroke-width:7;stroke-linecap:butt;stroke-linejoin:miter;stroke-miterlimit:10;stroke-dasharray:none;stroke-opacity:1"
             d="M 0,0 H -32" /></g><g
           transform="translate(342,85.3899)"
           id="g384"><path
             id="path386"
             style="fill:#b3b3b3;fill-opacity:1;fill-rule:nonzero;stroke:#b3b3b3;stroke-width:7;stroke-linecap:butt;stroke-linejoin:miter;stroke-miterlimit:10;stroke-dasharray:none;stroke-opacity:1"
             d="M 0,0 H -32" /></g><g
           transform="translate(342,97.3899)"
           id="g388"><path
             id="path390"
             style="fill:#b3b3b3;fill-opacity:1;fill-rule:nonzero;stroke:#b3b3b3;stroke-width:7;stroke-linecap:butt;stroke-linejoin:miter;stroke-miterlimit:10;stroke-dasharray:none;stroke-opacity:1"
             d="M 0,0 H -32" /></g><g
           transform="translate(492,157.39)"
           id="g392"><path
             id="path394"
             style="fill:#b3b3b3;fill-opacity:1;fill-rule:nonzero;stroke:#b3b3b3;stroke-width:7;stroke-linecap:butt;stroke-linejoin:miter;stroke-miterlimit:10;stroke-dasharray:none;stroke-opacity:1"
             d="M 0,0 H -96" /></g><g
           transform="translate(410,145.39)"
           id="g396"><path
             id="path398"
             style="fill:#b3b3b3;fill-opacity:1;fill-rule:nonzero;stroke:#b3b3b3;stroke-width:7;stroke-linecap:butt;stroke-linejoin:miter;stroke-miterlimit:10;stroke-dasharray:none;stroke-opacity:1"
             d="M 0,0 H -14" /></g><g
           transform="translate(410,121.39)"
           id="g400"><path
             id="path402"
             style="fill:#b3b3b3;fill-opacity:1;fill-rule:nonzero;stroke:#b3b3b3;stroke-width:7;stroke-linecap:butt;stroke-linejoin:miter;stroke-miterlimit:10;stroke-dasharray:none;stroke-opacity:1"
             d="M 0,0 H -14" /></g><g
           transform="translate(410,133.39)"
           id="g404"><path
             id="path406"
             style="fill:#b3b3b3;fill-opacity:1;fill-rule:nonzero;stroke:#b3b3b3;stroke-width:7;stroke-linecap:butt;stroke-linejoin:miter;stroke-miterlimit:10;stroke-dasharray:none;stroke-opacity:1"
             d="M 0,0 H -14" /></g><g
           transform="translate(410,109.39)"
           id="g408"><path
             id="path410"
             style="fill:#b3b3b3;fill-opacity:1;fill-rule:nonzero;stroke:#b3b3b3;stroke-width:7;stroke-linecap:butt;stroke-linejoin:miter;stroke-miterlimit:10;stroke-dasharray:none;stroke-opacity:1"
             d="M 0,0 H -14" /></g><g
           transform="translate(410,85.39)"
           id="g412"><path
             id="path414"
             style="fill:#b3b3b3;fill-opacity:1;fill-rule:nonzero;stroke:#b3b3b3;stroke-width:7;stroke-linecap:butt;stroke-linejoin:miter;stroke-miterlimit:10;stroke-dasharray:none;stroke-opacity:1"
             d="M 0,0 H -14" /></g><g
           transform="translate(410,97.39)"
           id="g416"><path
             id="path418"
             style="fill:#b3b3b3;fill-opacity:1;fill-rule:nonzero;stroke:#b3b3b3;stroke-width:7;stroke-linecap:butt;stroke-linejoin:miter;stroke-miterlimit:10;stroke-dasharray:none;stroke-opacity:1"
             d="M 0,0 H -14" /></g><g
           transform="translate(461,145.3899)"
           id="g420"><path
             id="path422"
             style="fill:#b3b3b3;fill-opacity:1;fill-rule:nonzero;stroke:#b3b3b3;stroke-width:7;stroke-linecap:butt;stroke-linejoin:miter;stroke-miterlimit:10;stroke-dasharray:none;stroke-opacity:1"
             d="M 0,0 H -33" /></g><g
           transform="translate(461,121.3899)"
           id="g424"><path
             id="path426"
             style="fill:#b3b3b3;fill-opacity:1;fill-rule:nonzero;stroke:#b3b3b3;stroke-width:7;stroke-linecap:butt;stroke-linejoin:miter;stroke-miterlimit:10;stroke-dasharray:none;stroke-opacity:1"
             d="M 0,0 H -33" /></g><g
           transform="translate(461,133.3899)"
           id="g428"><path
             id="path430"
             style="fill:#b3b3b3;fill-opacity:1;fill-rule:nonzero;stroke:#b3b3b3;stroke-width:7;stroke-linecap:butt;stroke-linejoin:miter;stroke-miterlimit:10;stroke-dasharray:none;stroke-opacity:1"
             d="M 0,0 H -33" /></g><g
           transform="translate(461,109.3899)"
           id="g432"><path
             id="path434"
             style="fill:#b3b3b3;fill-opacity:1;fill-rule:nonzero;stroke:#b3b3b3;stroke-width:7;stroke-linecap:butt;stroke-linejoin:miter;stroke-miterlimit:10;stroke-dasharray:none;stroke-opacity:1"
             d="M 0,0 H -33" /></g><g
           transform="translate(461,85.3899)"
           id="g436"><path
             id="path438"
             style="fill:#b3b3b3;fill-opacity:1;fill-rule:nonzero;stroke:#b3b3b3;stroke-width:7;stroke-linecap:butt;stroke-linejoin:miter;stroke-miterlimit:10;stroke-dasharray:none;stroke-opacity:1"
             d="M 0,0 H -33" /></g><g
           transform="translate(461,97.3899)"
           id="g440"><path
             id="path442"
             style="fill:#b3b3b3;fill-opacity:1;fill-rule:nonzero;stroke:#b3b3b3;stroke-width:7;stroke-linecap:butt;stroke-linejoin:miter;stroke-miterlimit:10;stroke-dasharray:none;stroke-opacity:1"
             d="M 0,0 H -33" /></g></g></g></g></svg>